<svg xmlns:xlink="http://www.w3.org/1999/xlink" xmlns="http://www.w3.org/2000/svg" class="w-full h-full" role="img" aria-label="Logo" viewBox="0 0 207 157" width="207"  height="157" ><defs><symbol id="logoBlackSVG" viewBox="0 0 207 157" fill="none">
    <g clip-path="url(#clip0_93_58)" fill="none">
      <path d="M15.3884 57.3529H2.41895V53.3641H33.0674V57.3529H20.0979V106.692H15.3884V57.3529Z" fill="black"></path>
      <path d="M41.3543 77.297H62.2916V53.3641H67.0103V106.692H62.2916V81.2858H40.04L41.3543 77.297Z" fill="black"></path>
      <path d="M82.8642 53.3549H78.1455V106.682H82.8642V53.3549Z" fill="black"></path>
      <path d="M94.3545 106.692V53.3641H101.574L123.168 100.187L123.314 100.04V53.3641H128.033V106.692H120.887L99.2192 59.3473L99.0731 59.4937V106.692H94.3545Z" fill="black"></path>
      <path d="M164.149 82.8319H153.388V78.8431H168.868V105.502C164.149 106.975 159.211 107.716 154.201 107.716C136.887 107.716 138.137 90.3612 138.137 80.0141C138.137 69.667 136.887 52.312 154.201 52.312C164.368 52.312 169.598 56.6667 169.388 67.0139H164.669C164.669 59.9968 161.648 56.3099 154.201 56.3099C142.701 56.3099 142.856 66.5747 142.856 80.0232C142.856 93.4718 142.71 103.737 154.201 103.737C158.253 103.737 161.648 103.142 164.149 102.181V82.8319Z" fill="black"></path>
      <path d="M202.063 66.8766C201.917 60.3079 200.292 56.3191 193.072 56.3191C187.322 56.3191 183.717 58.3135 183.717 64.5895C183.717 72.4939 187.697 72.7135 193.739 77.0774C200.301 81.8072 207.009 83.207 207.009 93.545C207.009 103.078 202.145 107.725 192.863 107.725C182.476 107.725 177.83 102.108 178.268 91.6969H183.133C183.133 97.607 183.571 103.737 193.082 103.737C199.27 103.737 202.291 100.416 202.291 94.2769C202.291 87.0403 197.499 84.9727 189.832 80.252C179.519 73.8937 179.072 70.7191 178.999 65.4037C178.926 56.1727 184.749 52.3303 193.447 52.3303C204.499 52.3303 206.854 59.2009 206.854 66.8766H202.063Z" fill="black"></path>
      <path d="M0 0V7.447H57.2079L11.7647 154.74L18.8472 157L67.2841 0H0Z" fill="#92381C"></path>
      <path d="M201.761 131.594V140.066C201.761 141.502 202.628 142.225 204.372 142.225C205.175 142.225 205.805 142.161 206.252 142.024V140.578C205.878 140.642 205.576 140.67 205.366 140.67C204.801 140.67 204.372 140.542 204.089 140.285C203.806 140.02 203.669 139.645 203.669 139.151V131.603H206.206V130.158H203.669V127.066L201.761 127.916V130.158H199.826V131.603H201.761V131.594ZM191.849 134.787C191.849 132.564 192.653 131.457 194.268 131.457C195.619 131.457 196.294 132.225 196.294 133.753V141.969H198.202V133.717C198.202 132.317 197.946 131.329 197.444 130.762C196.942 130.185 196.157 129.902 195.071 129.902C194.341 129.902 193.702 130.039 193.164 130.313C192.634 130.579 192.196 131.045 191.849 131.722L191.922 130.158H189.896C189.933 130.972 189.951 131.667 189.951 132.235V141.978H191.859V134.796L191.849 134.787ZM180.714 132.198C181.07 131.631 181.673 131.347 182.522 131.347C183.188 131.347 183.672 131.539 183.973 131.914C184.447 132.5 184.685 133.607 184.685 135.235H180.185C180.185 133.781 180.368 132.765 180.714 132.198ZM186.711 136.681V135.437C186.711 133.451 186.401 132.033 185.789 131.183C185.187 130.323 184.119 129.902 182.595 129.902C180.988 129.902 179.838 130.368 179.154 131.301C178.478 132.225 178.141 133.863 178.141 136.214C178.141 137.971 178.424 139.416 178.99 140.542C179.564 141.667 180.76 142.225 182.576 142.225C183.845 142.225 184.84 141.886 185.552 141.209C186.264 140.523 186.62 139.59 186.62 138.401H184.53C184.493 139.087 184.292 139.636 183.927 140.048C183.562 140.459 183.097 140.661 182.513 140.661C181.709 140.661 181.125 140.377 180.742 139.819C180.368 139.252 180.176 138.2 180.176 136.672H186.711V136.681ZM163.373 134.019C163.373 132.317 164.076 131.457 165.491 131.457C166.677 131.457 167.27 132.225 167.27 133.753V141.969H169.178V133.964C169.178 132.289 169.863 131.448 171.222 131.448C172.464 131.448 173.084 132.216 173.084 133.744V141.96H174.992V133.003C174.992 130.926 173.933 129.883 171.825 129.883C170.483 129.883 169.561 130.368 169.032 131.338C168.576 130.368 167.672 129.883 166.312 129.883C164.824 129.883 163.839 130.487 163.373 131.704V130.14H161.411C161.447 130.954 161.466 131.731 161.466 132.445V141.96H163.373V134V134.019ZM155.314 131.594V140.066C155.314 141.502 156.181 142.225 157.924 142.225C158.728 142.225 159.357 142.161 159.805 142.024V140.578C159.43 140.642 159.129 140.67 158.919 140.67C158.353 140.67 157.924 140.542 157.632 140.285C157.349 140.02 157.213 139.645 157.213 139.151V131.603H159.75V130.158H157.213V127.066L155.305 127.916V130.158H153.37V131.603H155.305L155.314 131.594ZM148.67 141.978V135.007C148.67 132.857 149.537 131.777 151.28 131.777C151.627 131.777 151.964 131.814 152.302 131.887V129.902H151.91C150.258 129.902 149.181 130.606 148.679 132.006V130.149H146.771V141.969H148.679L148.67 141.978ZM141.779 136.086C141.779 137.925 141.56 139.151 141.131 139.755C140.702 140.359 140.099 140.661 139.333 140.661C138.785 140.661 138.347 140.468 138.018 140.066C137.69 139.672 137.516 139.133 137.516 138.456C137.516 137.632 137.799 137.028 138.356 136.644C138.913 136.269 139.917 136.077 141.359 136.077H141.779V136.086ZM137.918 133.36C137.918 132.674 138.091 132.171 138.438 131.85C138.794 131.512 139.241 131.347 139.78 131.347C141.122 131.347 141.788 132.107 141.788 133.634V134.65H140.309C138.749 134.65 137.58 134.97 136.795 135.62C136.011 136.26 135.618 137.184 135.618 138.382C135.618 140.953 136.713 142.234 138.904 142.234C140.318 142.234 141.295 141.566 141.843 140.221V141.987H143.96C143.778 141.136 143.686 140.24 143.686 139.307V133.497C143.686 131.109 142.399 129.92 139.816 129.92C137.234 129.92 135.928 131.073 135.883 133.378H137.918V133.36ZM127.313 132.445C127.659 131.786 128.198 131.457 128.937 131.457C129.749 131.457 130.352 131.768 130.726 132.381C131.109 132.994 131.301 134.119 131.301 135.748C131.301 137.651 131.137 138.95 130.817 139.636C130.489 140.322 129.886 140.67 129.001 140.67C128.262 140.67 127.705 140.359 127.34 139.736C126.975 139.105 126.792 138.044 126.792 136.553V135.995C126.792 134.284 126.966 133.104 127.303 132.445M126.801 130.149H124.894V146.333H126.801V140.578C127.322 141.667 128.225 142.216 129.503 142.216C130.781 142.216 131.757 141.777 132.387 140.898C133.026 140.02 133.336 138.401 133.336 136.059C133.336 133.881 133.044 132.317 132.451 131.356C131.867 130.387 130.909 129.902 129.558 129.902C128.207 129.902 127.358 130.506 126.801 131.722V130.158V130.149ZM119.947 136.086C119.947 137.925 119.728 139.151 119.299 139.755C118.87 140.359 118.268 140.661 117.492 140.661C116.944 140.661 116.506 140.468 116.178 140.066C115.849 139.672 115.676 139.133 115.676 138.456C115.676 137.632 115.959 137.028 116.515 136.644C117.072 136.269 118.076 136.077 119.518 136.077H119.938L119.947 136.086ZM116.077 133.36C116.077 132.674 116.251 132.171 116.597 131.85C116.953 131.512 117.401 131.347 117.939 131.347C119.281 131.347 119.947 132.107 119.947 133.634V134.65H118.478C116.917 134.65 115.749 134.97 114.964 135.62C114.179 136.269 113.786 137.184 113.786 138.382C113.786 140.953 114.882 142.234 117.072 142.234C118.487 142.234 119.463 141.566 120.011 140.221V141.987H122.128C121.946 141.136 121.855 140.24 121.855 139.307V133.497C121.855 131.109 120.568 129.92 117.985 129.92C115.402 129.92 114.097 131.073 114.051 133.378H116.077V133.36ZM98.2431 131.695C97.8141 131.155 97.5951 130.688 97.5951 130.277C97.5951 129.783 97.7411 129.399 98.0423 129.097C98.3526 128.795 98.7268 128.648 99.174 128.648C100.196 128.648 100.707 129.206 100.707 130.313C100.707 131.036 100.196 131.869 99.174 132.82C98.9824 132.601 98.672 132.225 98.2339 131.695M102.241 139.288C101.547 140.24 100.561 140.715 99.2653 140.715C98.3982 140.715 97.6863 140.478 97.1387 139.993C96.582 139.508 96.3081 138.867 96.3081 138.071C96.3081 137.532 96.4451 137.019 96.7097 136.553C96.9835 136.077 97.6224 135.501 98.6355 134.815L102.241 139.279V139.288ZM94.4189 138.154C94.4189 139.489 94.857 140.514 95.7331 141.219C96.6093 141.923 97.732 142.28 99.1193 142.28C100.041 142.28 100.817 142.143 101.447 141.877C102.076 141.612 102.679 141.145 103.236 140.487L104.386 141.978H106.476L104.166 138.922C104.769 137.989 105.061 136.178 105.061 133.488H103.418V135.116C103.418 136.132 103.309 136.964 103.099 137.605L100.224 133.945C101.803 132.646 102.597 131.393 102.597 130.185C102.597 129.27 102.305 128.557 101.72 128.035C101.136 127.514 100.324 127.249 99.2653 127.249C98.1244 127.249 97.2482 127.505 96.6276 128.017C96.0161 128.529 95.7058 129.234 95.7058 130.13C95.7058 131.1 96.3355 132.308 97.6042 133.762C95.4776 134.897 94.4189 136.361 94.4189 138.154ZM85.447 125.245H83.5395V141.978H85.447V125.245ZM74.3395 132.198C74.6954 131.631 75.2978 131.347 76.1466 131.347C76.8129 131.347 77.2966 131.539 77.5978 131.914C78.0724 132.5 78.3097 133.607 78.3097 135.235H73.8101C73.8101 133.781 73.9927 132.765 74.3395 132.198ZM80.3451 136.681V135.437C80.3451 133.451 80.0347 132.033 79.4232 131.183C78.8208 130.323 77.753 129.902 76.2288 129.902C74.6224 129.902 73.4724 130.368 72.797 131.301C72.1216 132.225 71.7839 133.863 71.7839 136.214C71.7839 137.971 72.0669 139.416 72.6328 140.542C73.2078 141.667 74.4034 142.225 76.2197 142.225C77.4883 142.225 78.4831 141.886 79.195 141.209C79.907 140.523 80.2629 139.59 80.2629 138.401H78.1728C78.1363 139.087 77.9355 139.636 77.5704 140.048C77.2054 140.459 76.7399 140.661 76.1558 140.661C75.3526 140.661 74.7685 140.377 74.3851 139.819C74.0109 139.252 73.8193 138.2 73.8193 136.672H80.3542L80.3451 136.681ZM65.7145 131.594V140.066C65.7145 141.502 66.5816 142.225 68.3248 142.225C69.128 142.225 69.7577 142.161 70.205 142.024V140.578C69.8308 140.642 69.5296 140.67 69.3197 140.67C68.7538 140.67 68.3248 140.542 68.0419 140.285C67.7589 140.02 67.622 139.645 67.622 139.151V131.603H70.1593V130.158H67.622V127.066L65.7145 127.916V130.158H63.7796V131.603H65.7145V131.594ZM56.1768 132.354C56.5601 131.759 57.1808 131.457 58.0478 131.457C58.8145 131.457 59.4078 131.731 59.8276 132.289C60.2474 132.838 60.4574 133.9 60.4574 135.446C60.4574 137.394 60.2931 138.748 59.9554 139.517C59.6268 140.285 58.9879 140.661 58.0661 140.661C57.0712 140.661 56.405 140.285 56.0764 139.535C55.7478 138.776 55.5927 137.413 55.5927 135.446C55.5927 133.973 55.7843 132.948 56.1677 132.354M54.6343 140.953C55.3554 141.804 56.4962 142.225 58.0752 142.225C59.6542 142.225 60.8316 141.767 61.4978 140.862C62.1641 139.947 62.4927 138.328 62.4927 136.022C62.4927 133.863 62.1732 132.308 61.5252 131.347C60.8863 130.387 59.7272 129.902 58.0661 129.902C56.405 129.902 55.328 130.341 54.6161 131.219C53.9133 132.097 53.5665 133.762 53.5665 136.205C53.5665 138.511 53.9224 140.093 54.6343 140.944M42.249 141.978H44.1566V134.796C44.1566 132.573 44.9689 131.466 46.6026 131.466C47.9351 131.466 48.6014 132.235 48.6014 133.762V141.978H50.5089V133.726C50.5089 132.372 50.2625 131.393 49.7605 130.807C49.2677 130.204 48.4736 129.911 47.3784 129.911C45.8542 129.911 44.7863 130.515 44.1566 131.731V125.254H42.249V141.987V141.978Z" fill="black"></path>
    </g>
    <defs>
      <clipPath id="clip0_93_58">
        <rect width="207" height="157" fill="black"></rect>
      </clipPath>
    </defs>
  </symbol></defs>
      <use href="#logoBlackSVG"></use>
    </svg>