<?xml version="1.0" encoding="utf-8"?>
<!-- Generator: Adobe Illustrator 27.5.0, SVG Export Plug-In . SVG Version: 6.00 Build 0)  -->
<svg version="1.1" id="Ebene_1" xmlns="http://www.w3.org/2000/svg" xmlns:xlink="http://www.w3.org/1999/xlink" x="0px" y="0px"
	 viewBox="0 0 362.8 102.1" style="enable-background:new 0 0 362.8 102.1;" xml:space="preserve">
<style type="text/css">
	.st0{fill-rule:evenodd;clip-rule:evenodd;fill:#181716;}
</style>
<path class="st0" d="M102.1,51c0,28.2-22.8,51-51,51S0,79.2,0.1,51C0.1,22.9,22.9,0,51,0C79.2,0,102,22.8,102.1,51
	C102,51,102.1,51,102.1,51z M88.4,51c0-20.7-16.8-37.4-37.4-37.4S13.6,30.3,13.6,51c0,18,12.9,33.5,30.6,36.8V51h13.6v36.8
	C75.6,84.5,88.4,69,88.4,51z"/>
<path class="st0" d="M168.8,16.8h8.5v-2.4c0-0.7,0-1.2-0.4-1.7l-1.4-1.2c-0.5-0.4-1.1-0.5-1.7-0.4h-1.1c-0.6-0.1-1.3,0.1-1.8,0.4
	l-1.2,0.9c-0.6,0.3-0.9,1-0.8,1.6L168.8,16.8z M171.8,27.9c-1.5,0-2.1,0-3.2-1l-1.6-1.3c-1.3-0.9-2-2.5-1.8-4v-7.2
	c0-1.9,0.3-3,1.8-4.3l1.3-1c1-1.1,2.5-1.6,4-1.5h1.4c1.5-0.2,2.9,0.3,4,1.3l1.4,1.1c1.6,1.3,1.9,2.7,1.9,4.7v3.1
	c0,2.1-0.3,2.7-2.5,2.7h-9.6v1.2c0.1,0.4,0.2,0.8,0.5,1l0.9,1c0.7,0.6,1.5,0.8,2.4,0.7h5.8c1.2,0,2.5,0.3,2.5,1.8s-1.4,1.8-2.5,1.8
	L171.8,27.9z M219.6,16.8h8.5v-2.4c0-0.7,0-1.2-0.4-1.7l-1.4-1.2c-0.5-0.4-1.1-0.5-1.7-0.4h-1.1c-0.6-0.1-1.3,0.1-1.8,0.4l-1.2,0.9
	c-0.6,0.4-0.8,1-0.8,1.6V16.8z M222.6,27.9c-1.5,0-2.1,0-3.2-1l-1.5-1.3c-1.3-0.9-2-2.5-1.8-4.1v-7.1c0-1.9,0.3-3,1.8-4.3l1.3-1
	c1-1.1,2.5-1.6,4-1.5h1.4c1.5-0.2,2.9,0.3,4,1.3l1.5,1.2c1.6,1.3,1.9,2.7,1.9,4.7v3.1c0,2.1-0.3,2.7-2.5,2.7h-9.6v1.2
	c0.1,0.4,0.2,0.8,0.5,1l0.9,1c0.7,0.6,1.5,0.8,2.4,0.7h5.8c1.2,0,2.5,0.3,2.5,1.8s-1.4,1.8-2.5,1.8L222.6,27.9z M155.6,12
	c0.5-0.5,1.1-0.8,1.8-0.9h2.1c1.2,0,2.5-0.3,2.5-1.8s-1.2-1.8-2.5-1.8h-2.9c-1.2,0.1-2.3,0.7-3.2,1.5l-0.9,0.7
	c0.1-0.9-0.3-1.7-1.1-2.1c-0.2-0.1-0.3-0.2-0.5-0.1h-3.8c-1.2,0-2.5,0.3-2.5,1.8s1.4,1.8,2.5,1.8h1.8v13.2H147
	c-1.2,0-2.5,0.3-2.5,1.8s1.5,1.8,2.5,1.8h7.3c1,0,2.2-0.4,2.2-1.8s-1.1-1.8-2.1-1.8h-1.9v-9.7L155.6,12z M188.5,7.5
	c-1.4,0-1.8,0.8-1.8,2.1v15.8c0,1.2,0.2,2.5,1.8,2.5s1.8-1.3,1.8-2.5V13.5L192,12c0.3-0.2,0.7-0.3,1.1-0.3h1.2
	c2.1,0,2.3,0.9,2.4,3.1v10.7c0,1.2,0.4,2.4,1.8,2.4s1.7-1.4,1.7-2.7V13.4l2-1.4c0.3-0.2,0.7-0.3,1.1-0.3h1.2c2.1,0,2.3,0.9,2.4,3.1
	v10.7c0,1.2,0.3,2.4,1.7,2.4s1.7-1.4,1.7-2.7l0.1-10.9c-0.1-2,0-3.5-1.6-4.9c-0.8-0.9-2-1.4-3.2-1.3h-2.6c-1.1,0-2.9,1.1-3.9,1.8
	c-0.1-0.2-0.3-0.3-0.4-0.4c-0.8-0.9-2-1.4-3.2-1.3h-2.6c-0.9,0.2-1.7,0.6-2.4,1.2C190.3,8.1,189.9,7.5,188.5,7.5L188.5,7.5z
	 M239.5,7.5c-1.4,0-1.8,0.8-1.8,2.1v15.7c0,1.3,0.3,2.5,1.8,2.5s1.8-1.2,1.8-2.5V13.6l3.1-1.6c0.3-0.2,0.7-0.3,1.1-0.3h1.2
	c2.1,0,2.3,0.9,2.4,3.1v10.6c0,1.2,0.3,2.5,1.8,2.5s1.8-1.4,1.7-2.7V14.3c-0.1-2,0-3.5-1.6-4.9c-0.9-0.9-2-1.4-3.3-1.3H245
	c-1.3,0.2-2.6,0.7-3.8,1.4C241.2,8.3,240.7,7.5,239.5,7.5L239.5,7.5z M127.9,19.2c-0.1,1,0.3,1.9,1.1,2.4l2.1,1.8
	c0.5,0.4,1,0.9,1.4,0.9h1.4c0.4,0,0.8-0.1,1.1-0.3l1.6-1.3c0.4-0.3,0.4-1.2,0.4-1.9v-6.4c0.1-0.6-0.1-1.1-0.5-1.5l-1.7-1.3
	c-0.2-0.2-0.6-0.3-0.9-0.3h-1.1c-0.6,0-1.1,0.3-1.5,0.6l-2.4,2c-0.7,0.5-1.1,1.3-1.1,2.2L127.9,19.2z M127.9,10.2l0.6-0.6
	c1.2-1.2,1.9-2,3.6-2h2.6c1,0.1,2,0.6,2.7,1.3l1.2,1.1c1.3,1,2.1,2.6,2,4.2v7.3c0.1,1.7-0.7,3.2-2,4.2l-1.2,1.1
	c-0.8,0.7-1.8,1.2-2.8,1.3h-2.4c-1.5,0-2.5-0.9-3.5-1.9l-0.8-0.8v0.2c0,1.2-0.4,2.4-1.8,2.4s-1.8-1.3-1.8-2.5V2.5
	c0-1.2,0.3-2.5,1.8-2.5s1.8,1.2,1.8,2.5L127.9,10.2z"/>
<g>
	<path class="st0" d="M277,56.7c-0.9-0.6-2-0.9-3.1-0.8h-2c-1.1-0.1-2.3,0.1-3.3,0.7l-2.2,1.6c-0.8,0.6-1.3,1.1-1.3,2.9l0,4.5h15.1
		v-3.8c0-1.2,0.1-2.2-0.8-3L277,56.7z"/>
	<path class="st0" d="M272.7,38.1c-16,0-28.9,12.9-28.9,28.9c0,0,0,0,0,0c0,16,12.9,28.9,28.9,28.9c16,0,28.9-12.9,28.9-28.9
		C301.6,51,288.7,38.1,272.7,38.1z M286.7,67.4c0,3.7-0.6,4.7-4.4,4.7h-17.1v2.1c0.1,0.7,0.4,1.4,0.9,1.9l1.6,1.7
		c0.9,0.9,2.1,1.2,4.3,1.2h10.3c2.1,0,4.4,0.5,4.4,3.2c0,2.7-2.5,3.2-4.4,3.2l-11.8,0c-2.7,0-3.7,0-5.7-1.7l-2.8-2.4
		c-2.5-2.3-3.3-3.7-3.3-7.2V61.8c0-3.4,0.5-5.4,3.1-7.7l2.3-1.9c3-2.6,4.5-2.7,7.1-2.7h2.5c3.1,0,4.6,0.3,7.1,2.3l2.6,2.1
		c2.9,2.3,3.3,4.8,3.3,8.3V67.4z"/>
</g>
<path class="st0" d="M150.2,38.1c-16,0-28.9,13-28.9,28.9c0,16,13,28.9,28.9,28.9h0c16,0,28.9-13,28.9-28.9
	C179.1,51,166.2,38,150.2,38.1z M165.7,58c0,0.9-0.3,1.8-0.7,2.6l-9.4,20.7c-0.6,1.4-1.7,4-3.3,4h-4.1c-1.6,0-2.7-2.7-3.3-4
	l-9.4-20.7c-0.5-0.8-0.7-1.7-0.7-2.6v-4.5c0-2,0.9-3.8,3.1-3.8c2.8,0,3.2,2.4,3.2,4.7v3.2l9.2,21.1l9.1-21.1v-3.2
	c0-2.2,0.4-4.7,3.2-4.7c2.2,0,3.1,1.8,3.1,3.8V58z"/>
<path class="st0" d="M211.5,38.1c-16,0-28.9,12.9-28.9,28.9v0c0,16,12.9,28.9,28.9,28.9c16,0,28.9-12.9,28.9-28.9
	C240.4,51,227.5,38.1,211.5,38.1z M220,85.3h-16.1c-1.8,0-4.4-0.5-4.4-3.2c0-2.7,2.2-3.2,4.4-3.2h5V56h-2.7c-1.8,0-4.4-0.5-4.4-3.2
	c0-2.7,2.2-3.2,4.4-3.2h4.3c3.6,0,4.7,0.7,4.7,4.4l0,24.8h4.8c2.1,0,4.4,0.4,4.4,3.2C224.4,84.9,221.8,85.3,220,85.3z"/>
<path class="st0" d="M333.9,38.1C317.9,38.1,305,51,305,67v0c0,16,13,28.9,28.9,28.9c0,0,0,0,0,0c16,0,28.9-12.9,28.9-28.9
	C362.8,51,349.9,38.1,333.9,38.1z M346.2,56.3h-3.7c-1.2,0.1-2.3,0.6-3.2,1.5l-5.5,4.6v17.2h3.4c1.9,0.1,3.8,0.6,3.8,3.2
	s-2.1,3.1-3.9,3.2h-12.9c-1.9,0-4.4-0.5-4.4-3.2c0-2.7,2.3-3.2,4.4-3.2h3.3V56.4h-3.1c-1.9,0-4.4-0.5-4.4-3.2s2.3-3.2,4.4-3.2h6.7
	c0.3,0,0.7,0.1,0.9,0.2c1.4,0.6,1.9,2.2,1.9,3.8l1.6-1.4c1.8-1.5,3.6-2.7,5.6-2.7h5.2c2.2,0,4.4,0.5,4.4,3.2
	C350.6,55.8,348.4,56.3,346.2,56.3z"/>
</svg>
