<svg version="1.2" xmlns="http://www.w3.org/2000/svg" viewBox="0 0 1276 464" width="1276" height="464"><style>.a{fill:#ec1c24}.b{fill:#231f20}</style><path class="a" d="m224.3 338.9h-104.4c37.7 70.8 112.3 119.1 198.3 119.1 123.9 0 224.4-100.4 224.5-224.3h-86.9c-0.2 75.9-61.7 137.4-137.6 137.4-33.7 0-64.6-12.2-88.5-32.2h-5q-0.2 0-0.4 0zm292.1-210.9c-37.7-70.9-112.3-119.2-198.2-119.2-124 0-224.5 100.4-224.6 224.3h86.9c0.2-75.9 61.7-137.3 137.7-137.3 33.6 0 64.4 12.1 88.3 32.2z"/><path class="b" d="m423.9 232.7l8.5-4 1.2-0.5c5.6-2.5 10.9-3.6 17.4-3.8h0.5 174.5c0 0 4.3 0 4.3-4.3v-78.5c0 0 0-4.3-4.3-4.3h-209.4c-7.3 0-14.3 1.8-20.5 4.8l-0.5 0.2-80.5 40.7-25 12.8-79.1 39.1-7.1 3.2-1.2 0.6c-5.6 2.4-10.9 3.6-17.4 3.7l-0.5 0.1h-174.5c0 0-4.3 0-4.3 4.2v78.5c0 0 0 4.3 4.3 4.3h210.9c7.4 0 14.3-1.7 20.5-4.7l0.5-0.3z"/><path fill-rule="evenodd" class="b" d="m772.4 137.2c27.2 0 65.4 3.9 65.4 49.1 0 28.1-17.9 37.1-28.6 42.4 13.2 3.7 35.1 14 35.1 46.3 0 46.9-33.4 54.5-69.7 54.5h-46c-4.8 0-5.9-1.1-5.9-5.9v-180.5c0-5.1 1.1-5.9 5.9-5.9zm-3.1 79.4c16.6 0 30.6-4.2 30.6-26.4 0-17.6-12.1-23.5-27.5-23.5h-11.8v49.9zm1.4 83.4c19.4 0 35.7-3.3 35.7-27.2 0-23.6-16.3-26.7-35.1-26.7h-10.7v53.9z"/><path class="b" d="m972.6 172.3c-0.9 1.7-2 2.8-3.1 2.8-1.7 0-19.1-12.4-39.3-12.4-12.9 0-26.4 5.1-26.4 21.9 0 21.4 32.9 25.3 57.6 43.5 14.3 10.7 24.1 25.6 24.1 46.9 0 35.7-25.3 59.3-60.6 59.3-28.7 0-58.7-12.4-58.7-17.1 0-0.9 0.3-2 1.4-4.3l6.4-18.5c0.9-1.7 2-2.8 3.1-2.8 1.7 0 22.5 12.4 46.6 12.4 15.8 0 25.3-8.5 25.3-25.9 0-25-28.6-27.5-57.3-44.9-14.9-9-24.4-20.2-24.4-43.5 0-40.4 29.2-57.3 61.8-57.3 26.6 0 54.2 12.4 54.2 17.1 0 0.9-0.3 2-1.4 4.2z"/><path fill-rule="evenodd" class="b" d="m1138 323c0.5 2 1.1 3.4 1.4 4.8 0 1.4-1.2 1.7-4 1.7h-17.4c-3.3 0-4.5-1.1-5-3.1l-15.8-54.2h-57.5l-14.3 54.2c-0.6 2-1.7 3.1-5.1 3.1h-17.4c-2.8 0-3.9-0.3-3.9-1.7 0.3-1.4 0.5-2.8 1.4-4.8l56.1-182.7c0.9-2.8 1.2-3.1 4.2-3.1h16.6c2.3 0 3.1 0 4.2 3.1zm-62.9-132.6c-2.5-8.7-5-18.8-6.4-26.6h-0.6c-1.1 6.7-3.9 19.1-5.9 26.6l-17.1 62.1h46.9z"/><path class="b" d="m1271.6 311.3c0 7.3 0 9.5-3.9 11.7-10.1 6.2-28.4 10.4-45.5 10.4-49.7 0-67.4-43.8-67.4-101.9 0-53.3 18.5-98.3 67.9-98.3 25.9 0 46.6 13.2 46.6 17.2 0 1.7-0.5 1.9-1.4 3.6l-4.2 7.9c-1.1 1.7-1.1 3.9-3.3 3.9-3.1 0-14.6-13.7-37.1-13.7-30.9 0-43.2 29.2-43.2 76.6 0 52 12 85.9 42.6 85.9 13 0 20.5-2.8 25.9-5.3v-59h-22.5q-3.4 0-3.4-3.3v-11.6q0-3.3 3.4-3.3h42.1q3.4 0 3.4 3.3z"/></svg>