<?xml version="1.0" encoding="UTF-8" standalone="no"?><!DOCTYPE svg PUBLIC "-//W3C//DTD SVG 1.1//EN" "http://www.w3.org/Graphics/SVG/1.1/DTD/svg11.dtd"><svg width="100%" height="100%" viewBox="0 0 327 105" version="1.1" xmlns="http://www.w3.org/2000/svg" xmlns:xlink="http://www.w3.org/1999/xlink" xml:space="preserve" xmlns:serif="http://www.serif.com/" style="fill-rule:evenodd;clip-rule:evenodd;stroke-linejoin:round;stroke-miterlimit:2;"><g><path d="M137.593,46.74l-16.443,0l0,-30.5c0,-0.255 -0.094,-0.478 -0.286,-0.669c-0.189,-0.19 -0.427,-0.285 -0.716,-0.285c-0.284,0 -0.522,0.095 -0.714,0.285c-0.191,0.191 -0.286,0.414 -0.286,0.669l0,31.454c0,0.254 0.089,0.476 0.263,0.666c0.174,0.19 0.404,0.287 0.692,0.287l17.49,-0c0.254,-0 0.476,-0.088 0.668,-0.263c0.188,-0.173 0.283,-0.403 0.283,-0.69c0,-0.255 -0.095,-0.477 -0.283,-0.668c-0.192,-0.191 -0.414,-0.286 -0.668,-0.286Z" style="fill:#443415;fill-rule:nonzero;"/><path d="M161.874,42.094c-0.842,1.604 -2.002,2.876 -3.48,3.812c-1.478,0.938 -3.168,1.407 -5.075,1.407c-1.875,-0 -3.558,-0.469 -5.053,-1.407c-1.492,-0.936 -2.67,-2.208 -3.527,-3.812c-0.856,-1.604 -1.285,-3.424 -1.285,-5.458c-0,-2.064 0.429,-3.9 1.285,-5.505c0.857,-1.603 2.035,-2.874 3.527,-3.812c1.495,-0.937 3.178,-1.404 5.053,-1.404c1.907,0 3.597,0.467 5.075,1.404c1.478,0.938 2.638,2.209 3.48,3.812c0.841,1.605 1.264,3.441 1.264,5.505c0,2.034 -0.423,3.854 -1.264,5.458Zm-2.526,-16.347c-1.763,-1.096 -3.773,-1.644 -6.029,-1.644c-2.224,-0 -4.224,0.548 -6.004,1.644c-1.782,1.095 -3.184,2.59 -4.216,4.48c-1.036,1.89 -1.552,4.026 -1.552,6.409c-0,2.352 0.516,4.474 1.552,6.363c1.032,1.891 2.434,3.383 4.216,4.48c1.78,1.097 3.78,1.644 6.004,1.644c2.256,0 4.266,-0.547 6.029,-1.644c1.762,-1.097 3.15,-2.589 4.171,-4.48c1.014,-1.889 1.525,-4.011 1.525,-6.363c0,-2.383 -0.511,-4.519 -1.525,-6.409c-1.021,-1.89 -2.409,-3.385 -4.171,-4.48Z" style="fill:#443415;fill-rule:nonzero;"/><path d="M178.907,35.229l10.729,-8.934c0.22,-0.19 0.331,-0.43 0.331,-0.715c-0,-0.286 -0.095,-0.524 -0.287,-0.715c-0.189,-0.191 -0.411,-0.286 -0.668,-0.286c-0.222,0 -0.427,0.095 -0.616,0.286l-14.965,12.557l-0,-23.09c-0,-0.253 -0.088,-0.477 -0.262,-0.667c-0.176,-0.19 -0.406,-0.286 -0.691,-0.286c-0.286,-0 -0.515,0.096 -0.692,0.286c-0.174,0.19 -0.262,0.414 -0.262,0.667l0,33.362c0,0.254 0.088,0.476 0.262,0.666c0.177,0.19 0.406,0.287 0.692,0.287c0.285,-0 0.515,-0.097 0.691,-0.287c0.174,-0.19 0.262,-0.412 0.262,-0.666l-0,-7.903l4.018,-3.349l11.136,11.871c0.223,0.223 0.462,0.334 0.717,0.334c0.125,-0 0.315,-0.08 0.57,-0.239c0.254,-0.159 0.381,-0.396 0.381,-0.714c0,-0.287 -0.094,-0.525 -0.286,-0.716l-11.06,-11.749Z" style="fill:#443415;fill-rule:nonzero;"/><path d="M213.604,42.046c-0.794,1.637 -1.889,2.924 -3.285,3.86c-1.403,0.938 -2.99,1.407 -4.767,1.407c-1.781,-0 -3.372,-0.469 -4.769,-1.407c-1.395,-0.936 -2.493,-2.223 -3.286,-3.86c-0.795,-1.636 -1.191,-3.486 -1.191,-5.552c-0,-2.065 0.404,-3.891 1.216,-5.481c0.807,-1.589 1.915,-2.835 3.31,-3.742c1.397,-0.905 2.972,-1.356 4.72,-1.356c1.777,0 3.364,0.467 4.767,1.404c1.396,0.938 2.491,2.209 3.285,3.812c0.792,1.605 1.195,3.393 1.195,5.363c-0,2.066 -0.403,3.916 -1.195,5.552Zm1.956,-17.181c-0.288,-0 -0.518,0.096 -0.693,0.286c-0.173,0.19 -0.261,0.414 -0.261,0.667l0,4.218c-0.51,-1.191 -1.214,-2.232 -2.121,-3.121c-0.907,-0.89 -1.963,-1.582 -3.169,-2.074c-1.208,-0.492 -2.495,-0.738 -3.86,-0.738c-2.098,-0 -3.98,0.531 -5.648,1.596c-1.666,1.065 -2.987,2.526 -3.955,4.386c-0.97,1.856 -1.455,3.994 -1.455,6.409c-0,2.383 0.478,4.527 1.431,6.434c0.952,1.906 2.264,3.416 3.934,4.527c1.665,1.112 3.564,1.668 5.693,1.668c1.398,0 2.699,-0.262 3.908,-0.786c1.207,-0.524 2.253,-1.216 3.147,-2.074c0.887,-0.857 1.585,-1.811 2.095,-2.86l0,4.291c0,0.254 0.088,0.476 0.261,0.666c0.175,0.19 0.405,0.287 0.693,0.287c0.253,-0 0.476,-0.097 0.666,-0.287c0.19,-0.19 0.286,-0.412 0.286,-0.666l-0,-21.876c-0,-0.253 -0.087,-0.477 -0.262,-0.667c-0.175,-0.19 -0.405,-0.286 -0.69,-0.286Z" style="fill:#443415;fill-rule:nonzero;"/><path d="M225.613,13.379c-0.253,-0 -0.473,0.096 -0.665,0.286c-0.191,0.19 -0.287,0.414 -0.287,0.667l-0,33.362c-0,0.254 0.085,0.476 0.264,0.666c0.174,0.19 0.404,0.287 0.688,0.287c0.257,-0 0.478,-0.097 0.668,-0.287c0.191,-0.19 0.288,-0.412 0.288,-0.666l0,-33.362c0,-0.253 -0.09,-0.477 -0.263,-0.667c-0.175,-0.19 -0.408,-0.286 -0.693,-0.286Z" style="fill:#443415;fill-rule:nonzero;"/><path d="M237.432,28.605c0.889,-0.873 1.86,-1.524 2.909,-1.953c1.049,-0.428 2.051,-0.643 3.002,-0.643c1.365,0 2.685,0.295 3.956,0.882c1.272,0.588 2.36,1.453 3.264,2.596c0.907,1.144 1.437,2.559 1.598,4.242l-0,0.429l-17.53,-0c0.14,-0.805 0.348,-1.553 0.635,-2.24c0.555,-1.335 1.276,-2.437 2.166,-3.313Zm15.729,7.365c0.252,0 0.477,-0.102 0.666,-0.311c0.192,-0.205 0.286,-0.436 0.286,-0.689c-0.064,-1.874 -0.403,-3.489 -1.023,-4.839c-0.62,-1.349 -1.431,-2.478 -2.431,-3.384c-1,-0.905 -2.137,-1.573 -3.409,-2c-1.271,-0.431 -2.573,-0.644 -3.907,-0.644c-1.845,-0 -3.582,0.5 -5.219,1.502c-1.635,1 -2.971,2.437 -4.002,4.312c-1.032,1.874 -1.549,4.146 -1.549,6.814c-0,2.511 0.522,4.695 1.571,6.554c1.05,1.858 2.487,3.297 4.316,4.312c1.826,1.019 3.932,1.526 6.312,1.526c1.875,0 3.584,-0.476 5.124,-1.429c1.541,-0.954 2.806,-2.066 3.788,-3.337c0.128,-0.158 0.192,-0.351 0.192,-0.572c0,-0.222 -0.082,-0.421 -0.238,-0.595c-0.159,-0.174 -0.352,-0.262 -0.574,-0.262c-0.284,0 -0.555,0.142 -0.807,0.429c-0.477,0.699 -1.1,1.35 -1.861,1.954c-0.76,0.604 -1.62,1.088 -2.573,1.453c-0.953,0.366 -1.97,0.549 -3.051,0.549c-2.253,-0 -4.155,-0.494 -5.694,-1.478c-1.542,-0.985 -2.702,-2.287 -3.479,-3.907c-0.778,-1.621 -1.168,-3.401 -1.168,-5.339c-0,-0.212 0.018,-0.414 0.025,-0.619l18.705,0Z" style="fill:#443415;fill-rule:nonzero;"/><path d="M148.124,55.596c-0.794,0 -1.445,0.366 -1.952,1.096l-11.34,16.854l-11.06,-16.854c-0.223,-0.348 -0.543,-0.618 -0.953,-0.81c-0.414,-0.19 -0.812,-0.286 -1.191,-0.286c-0.668,0 -1.247,0.239 -1.74,0.715c-0.494,0.477 -0.741,1.049 -0.741,1.716l0,28.547c0,0.699 0.217,1.28 0.643,1.739c0.432,0.461 0.981,0.691 1.647,0.691c0.699,-0 1.262,-0.23 1.691,-0.691c0.43,-0.459 0.644,-1.04 0.644,-1.739l0,-21.81l8.959,13.947c0.223,0.285 0.514,0.533 0.881,0.738c0.366,0.207 0.725,0.295 1.072,0.262c0.38,0.033 0.747,-0.055 1.097,-0.262c0.352,-0.205 0.635,-0.453 0.859,-0.738l8.959,-13.644l-0,21.507c-0,0.699 0.23,1.28 0.691,1.739c0.46,0.461 1.071,0.691 1.834,0.691c0.732,-0 1.32,-0.23 1.764,-0.691c0.444,-0.459 0.668,-1.04 0.668,-1.739l-0,-28.547c-0,-0.698 -0.248,-1.278 -0.741,-1.74c-0.49,-0.459 -1.056,-0.691 -1.691,-0.691Z" style="fill:#443415;fill-rule:nonzero;"/><path d="M175.813,80.951c-0.7,1.303 -1.644,2.319 -2.834,3.05c-1.193,0.731 -2.535,1.096 -4.03,1.096c-1.46,0 -2.787,-0.365 -3.979,-1.096c-1.19,-0.731 -2.143,-1.747 -2.858,-3.05c-0.714,-1.302 -1.072,-2.797 -1.072,-4.481c-0,-1.746 0.358,-3.263 1.072,-4.55c0.715,-1.287 1.668,-2.303 2.858,-3.051c1.192,-0.746 2.519,-1.12 3.979,-1.12c1.495,0 2.837,0.374 4.03,1.12c1.19,0.748 2.134,1.764 2.834,3.051c0.699,1.287 1.048,2.804 1.048,4.55c-0,1.684 -0.349,3.179 -1.048,4.481Zm-0.427,-15.895c-1.908,-1.127 -4.054,-1.692 -6.437,-1.692c-2.35,-0 -4.486,0.565 -6.409,1.692c-1.923,1.129 -3.445,2.671 -4.575,4.624c-1.128,1.953 -1.693,4.217 -1.693,6.79c0,2.543 0.565,4.791 1.693,6.744c1.13,1.955 2.652,3.488 4.575,4.599c1.923,1.113 4.059,1.668 6.409,1.668c2.383,-0 4.529,-0.555 6.437,-1.668c1.904,-1.111 3.422,-2.644 4.551,-4.599c1.126,-1.953 1.691,-4.201 1.691,-6.744c0,-2.573 -0.565,-4.837 -1.691,-6.79c-1.129,-1.953 -2.647,-3.495 -4.551,-4.624Z" style="fill:#443415;fill-rule:nonzero;"/><path d="M220.659,64.915c-1.207,-0.938 -2.906,-1.406 -5.098,-1.406c-1.335,-0 -2.591,0.277 -3.767,0.832c-1.179,0.557 -2.184,1.256 -3.028,2.098c-0.779,0.781 -1.37,1.556 -1.779,2.323c-0.468,-1.421 -1.195,-2.597 -2.199,-3.515c-1.269,-1.159 -3.08,-1.738 -5.432,-1.738c-1.111,-0 -2.146,0.189 -3.097,0.572c-0.953,0.38 -1.821,0.873 -2.598,1.476c-0.778,0.604 -1.422,1.271 -1.93,2.001c-0.074,0.107 -0.123,0.211 -0.191,0.315l-0,-1.505c-0,-0.699 -0.228,-1.279 -0.692,-1.741c-0.46,-0.46 -1.023,-0.69 -1.691,-0.69c-0.699,0 -1.271,0.23 -1.715,0.69c-0.445,0.462 -0.668,1.042 -0.668,1.741l0,20.206c0,0.699 0.223,1.28 0.668,1.739c0.444,0.461 1.016,0.691 1.715,0.691c0.668,-0 1.231,-0.23 1.691,-0.691c0.464,-0.459 0.692,-1.04 0.692,-1.739l-0,-12.63c-0,-1.111 0.262,-2.128 0.789,-3.049c0.521,-0.922 1.261,-1.651 2.215,-2.193c0.953,-0.54 2.047,-0.81 3.285,-0.81c1.304,-0 2.321,0.27 3.054,0.81c0.729,0.542 1.245,1.271 1.548,2.193c0.301,0.921 0.452,1.938 0.452,3.049l-0,12.63c-0,0.699 0.223,1.28 0.666,1.739c0.445,0.461 1.014,0.691 1.717,0.691c0.699,-0 1.27,-0.23 1.714,-0.691c0.447,-0.459 0.668,-1.04 0.668,-1.739l-0,-12.581c-0,-1.112 0.271,-2.129 0.812,-3.051c0.538,-0.921 1.293,-1.66 2.264,-2.215c0.966,-0.555 2.073,-0.835 3.309,-0.835c1.307,-0 2.331,0.28 3.075,0.835c0.746,0.555 1.27,1.294 1.572,2.215c0.302,0.922 0.453,1.939 0.453,3.051l-0,12.581c-0,0.699 0.231,1.28 0.692,1.739c0.461,0.461 1.025,0.691 1.691,0.691c0.699,-0 1.272,-0.23 1.716,-0.691c0.447,-0.459 0.668,-1.04 0.668,-1.739l-0,-12.63c-0,-1.938 -0.239,-3.693 -0.716,-5.265c-0.476,-1.574 -1.317,-2.828 -2.525,-3.764Z" style="fill:#443415;fill-rule:nonzero;"/><path d="M235.864,69.703c0.665,-0.667 1.442,-1.151 2.332,-1.454c0.891,-0.301 1.813,-0.451 2.764,-0.451c1.08,0 2.109,0.229 3.076,0.69c0.967,0.461 1.787,1.112 2.455,1.954c0.666,0.842 1.047,1.82 1.142,2.931l-0,0.334l-13.761,0c0.098,-0.487 0.215,-0.948 0.371,-1.358c0.412,-1.096 0.953,-1.978 1.621,-2.646Zm13.248,-2.835c-1.083,-1.095 -2.331,-1.953 -3.742,-2.574c-1.414,-0.62 -2.885,-0.93 -4.41,-0.93c-2.032,-0 -3.963,0.533 -5.786,1.598c-1.831,1.063 -3.309,2.588 -4.433,4.574c-1.129,1.986 -1.692,4.379 -1.692,7.173c-0,2.478 0.528,4.679 1.595,6.602c1.062,1.921 2.573,3.43 4.53,4.526c1.95,1.097 4.229,1.644 6.837,1.644c1.651,-0 3.232,-0.318 4.742,-0.952c1.508,-0.636 2.691,-1.366 3.549,-2.194c0.696,-0.57 1.048,-1.206 1.048,-1.905c0,-0.54 -0.189,-1.008 -0.57,-1.406c-0.384,-0.397 -0.858,-0.596 -1.432,-0.596c-0.445,-0 -0.92,0.142 -1.426,0.429c-0.384,0.317 -0.829,0.651 -1.335,1c-0.512,0.352 -1.145,0.644 -1.908,0.881c-0.763,0.24 -1.716,0.359 -2.86,0.359c-1.525,0 -2.906,-0.359 -4.145,-1.072c-1.242,-0.714 -2.226,-1.723 -2.954,-3.026c-0.541,-0.96 -0.875,-2.042 -1.016,-3.241l16.552,-0c0.634,-0 1.189,-0.206 1.668,-0.62c0.472,-0.413 0.729,-0.937 0.763,-1.573c-0.034,-1.747 -0.366,-3.36 -1.003,-4.836c-0.635,-1.478 -1.49,-2.766 -2.572,-3.861Z" style="fill:#443415;fill-rule:nonzero;"/><path d="M275.989,64.771c-1.239,-0.938 -2.986,-1.407 -5.243,-1.407c-1.11,-0 -2.159,0.184 -3.146,0.548c-0.987,0.366 -1.872,0.859 -2.669,1.478c-0.793,0.619 -1.468,1.288 -2.024,2.002c-0.113,0.144 -0.211,0.286 -0.308,0.428l-0,-1.452c-0,-0.699 -0.232,-1.279 -0.692,-1.741c-0.462,-0.46 -1.024,-0.69 -1.692,-0.69c-0.7,0 -1.271,0.23 -1.715,0.69c-0.447,0.462 -0.671,1.042 -0.671,1.741l0,20.206c0,0.699 0.224,1.28 0.671,1.739c0.444,0.461 1.015,0.691 1.715,0.691c0.668,-0 1.23,-0.23 1.692,-0.691c0.46,-0.459 0.692,-1.04 0.692,-1.739l-0,-12.724c-0,-1.143 0.279,-2.169 0.832,-3.075c0.556,-0.904 1.328,-1.635 2.312,-2.192c0.985,-0.556 2.129,-0.834 3.432,-0.834c1.398,0 2.486,0.278 3.263,0.834c0.777,0.557 1.328,1.288 1.643,2.192c0.319,0.906 0.479,1.932 0.479,3.075l-0,12.724c-0,0.699 0.221,1.28 0.668,1.739c0.446,0.461 1.015,0.691 1.716,0.691c0.666,-0 1.23,-0.23 1.689,-0.691c0.462,-0.459 0.692,-1.04 0.692,-1.739l0,-12.772c0,-1.938 -0.248,-3.694 -0.738,-5.266c-0.494,-1.572 -1.359,-2.827 -2.598,-3.765Z" style="fill:#443415;fill-rule:nonzero;"/><path d="M296.815,68.608c0.634,0 1.167,-0.208 1.598,-0.62c0.428,-0.413 0.643,-0.922 0.643,-1.525c-0,-0.635 -0.215,-1.169 -0.643,-1.597c-0.431,-0.429 -0.964,-0.644 -1.598,-0.644l-3.812,0l-0,-3.765c-0,-0.699 -0.223,-1.279 -0.669,-1.737c-0.444,-0.462 -1.015,-0.693 -1.714,-0.693c-0.668,0 -1.232,0.231 -1.693,0.693c-0.46,0.458 -0.69,1.038 -0.69,1.737l-0,3.765l-2.622,0c-0.636,0 -1.167,0.207 -1.596,0.619c-0.428,0.415 -0.643,0.938 -0.643,1.574c0,0.604 0.215,1.121 0.643,1.548c0.429,0.429 0.96,0.645 1.596,0.645l2.622,0l-0,14.153c-0,1.526 0.223,2.709 0.668,3.552c0.443,0.841 1.008,1.452 1.69,1.833c0.685,0.383 1.392,0.621 2.12,0.716c0.73,0.095 1.366,0.142 1.909,0.142c0.953,-0 1.841,-0.237 2.668,-0.713c0.825,-0.478 1.237,-1.097 1.237,-1.859c-0,-0.603 -0.157,-1.081 -0.475,-1.431c-0.317,-0.349 -0.666,-0.524 -1.048,-0.524c-0.382,-0 -0.707,0.064 -0.978,0.19c-0.269,0.128 -0.58,0.192 -0.929,0.192c-0.349,-0 -0.692,-0.064 -1.024,-0.192c-0.334,-0.126 -0.596,-0.363 -0.785,-0.714c-0.194,-0.35 -0.287,-0.81 -0.287,-1.383l-0,-13.962l3.812,0Z" style="fill:#443415;fill-rule:nonzero;"/><path d="M309.396,69.703c0.667,-0.667 1.445,-1.151 2.336,-1.454c0.888,-0.301 1.81,-0.451 2.762,-0.451c1.083,0 2.106,0.229 3.075,0.69c0.971,0.461 1.791,1.112 2.455,1.954c0.67,0.842 1.049,1.82 1.142,2.931l-0,0.334l-13.757,0c0.097,-0.487 0.213,-0.948 0.367,-1.358c0.412,-1.096 0.952,-1.978 1.62,-2.646Zm16.062,7.435c0.474,-0.413 0.73,-0.937 0.762,-1.573c-0.032,-1.747 -0.366,-3.36 -1,-4.836c-0.638,-1.478 -1.494,-2.766 -2.573,-3.861c-1.083,-1.095 -2.328,-1.953 -3.744,-2.574c-1.412,-0.62 -2.882,-0.93 -4.409,-0.93c-2.031,-0 -3.962,0.533 -5.788,1.598c-1.828,1.063 -3.303,2.588 -4.432,4.574c-1.13,1.986 -1.693,4.379 -1.693,7.173c-0,2.478 0.531,4.679 1.598,6.602c1.062,1.921 2.571,3.43 4.527,4.526c1.953,1.097 4.232,1.644 6.838,1.644c1.652,-0 3.232,-0.318 4.744,-0.952c1.509,-0.636 2.691,-1.366 3.552,-2.194c0.696,-0.57 1.046,-1.206 1.046,-1.905c-0,-0.54 -0.192,-1.008 -0.574,-1.406c-0.381,-0.397 -0.856,-0.596 -1.429,-0.596c-0.445,-0 -0.92,0.142 -1.427,0.429c-0.383,0.317 -0.83,0.651 -1.336,1c-0.508,0.352 -1.144,0.644 -1.907,0.881c-0.764,0.24 -1.716,0.359 -2.86,0.359c-1.524,0 -2.908,-0.359 -4.147,-1.072c-1.239,-0.714 -2.221,-1.723 -2.953,-3.026c-0.538,-0.96 -0.875,-2.042 -1.016,-3.241l16.553,-0c0.634,-0 1.19,-0.206 1.668,-0.62Z" style="fill:#443415;fill-rule:nonzero;"/><path d="M82.36,73.377c0,-4.878 3.952,-8.831 8.83,-8.831c4.876,0 8.829,3.953 8.829,8.831c-0,4.876 -3.953,8.83 -8.829,8.83c-4.878,0 -8.83,-3.954 -8.83,-8.83Z" style="fill:#87bc63;fill-rule:nonzero;"/><path d="M87.147,54.382c0,-4.878 3.952,-8.83 8.83,-8.83c4.877,-0 8.829,3.952 8.829,8.83c-0,4.876 -3.952,8.829 -8.829,8.829c-4.878,-0 -8.83,-3.953 -8.83,-8.829Z" style="fill:#88c0dc;fill-rule:nonzero;"/><path d="M45.349,99.112c-0,-3.25 2.638,-5.886 5.888,-5.886c3.252,-0 5.887,2.636 5.887,5.886c0,3.251 -2.635,5.888 -5.887,5.888c-3.25,-0 -5.888,-2.637 -5.888,-5.888Z" style="fill:#87bc63;fill-rule:nonzero;"/><path d="M6.048,78.481c-0,-3.091 2.503,-5.598 5.593,-5.598c3.091,-0 5.596,2.507 5.596,5.598c-0,3.088 -2.505,5.595 -5.596,5.595c-3.09,0 -5.593,-2.507 -5.593,-5.595Z" style="fill:#88c0dc;fill-rule:nonzero;"/><path d="M10.528,20.068c-0,-4.774 3.868,-8.647 8.643,-8.647c4.774,-0 8.645,3.873 8.645,8.647c-0,4.772 -3.871,8.644 -8.645,8.644c-4.775,-0 -8.643,-3.872 -8.643,-8.644Z" style="fill:#9c709d;fill-rule:nonzero;"/><path d="M17.599,86.882c0,-7.166 5.81,-12.979 12.979,-12.979c7.167,-0 12.977,5.813 12.977,12.979c0,7.167 -5.81,12.979 -12.977,12.979c-7.169,0 -12.979,-5.812 -12.979,-12.979Z" style="fill:#d65c4c;fill-rule:nonzero;"/><path d="M60.223,86.981c-0,-6.445 5.222,-11.67 11.668,-11.67c6.445,0 11.668,5.225 11.668,11.67c-0,6.444 -5.223,11.669 -11.668,11.669c-6.446,0 -11.668,-5.225 -11.668,-11.669Z" style="fill:#f9c852;fill-rule:nonzero;"/><path d="M83.248,16.399c-4.927,0 -9.303,2.331 -12.116,5.94c1.839,2.314 3.271,4.972 4.233,7.996c1.606,4.94 1.724,9.909 0.366,14.821c2.225,1.252 4.784,1.972 7.517,1.972c8.483,-0 15.364,-6.877 15.364,-15.364c-0,-8.486 -6.881,-15.365 -15.364,-15.365Z" style="fill:#9c709d;fill-rule:nonzero;"/><path d="M51.212,52.37c-7.688,-0 -13.92,-6.232 -13.92,-13.92c-0,-7.688 6.232,-13.921 13.92,-13.921c7.688,-0 13.92,6.233 13.92,13.921c0,7.688 -6.232,13.92 -13.92,13.92Zm20.343,-20.82c-1.818,-5.705 -5.509,-9.934 -10.966,-12.567c-2.963,-1.412 -6.079,-2.146 -9.262,-2.186c-0.217,-0.027 -0.445,-0.027 -0.686,-0.001c-0.349,0.002 -0.71,0.016 -1.082,0.044c-3.441,0.25 -6.683,1.285 -9.645,3.073c-0.168,0.101 -0.32,0.205 -0.458,0.305c-0.476,0.323 -0.992,0.69 -1.504,1.069c-2.291,1.779 -4.16,3.949 -5.588,6.464c-1.816,3.274 -2.686,6.867 -2.583,10.686c-0.105,2.362 0.308,4.858 1.225,7.418c0.629,1.775 1.688,3.994 3.151,6.59c0.051,0.097 0.236,0.438 4.584,7.896c1.807,3.094 3.256,5.733 4.299,7.848c2.837,5.755 4.58,12.29 5.174,19.431c0.072,0.895 0.252,1.525 0.569,1.977c0.349,0.575 0.956,0.983 1.714,1.127c0.2,0.041 0.392,0.06 0.578,0.06l0.002,-0.001l0.16,-0.001c0.039,-0 0.078,-0.002 0.117,-0.005c1.06,-0.105 1.67,-0.593 1.992,-0.982c0.043,-0.049 0.084,-0.105 0.116,-0.162c0.279,-0.479 0.449,-1.11 0.515,-1.934c0.956,-10.094 4.592,-20.105 10.8,-29.74c2.084,-3.292 3.901,-6.46 5.396,-9.423c2.76,-5.608 3.223,-11.318 1.382,-16.986Z" style="fill:#87bc63;fill-rule:nonzero;"/><path d="M74.458,48.773c-0.217,0.511 -0.448,1.021 -0.698,1.531c-1.556,3.086 -3.435,6.37 -5.603,9.795c-1.953,3.031 -3.629,6.095 -5.039,9.181c2.234,2.333 5.373,3.791 8.857,3.791c6.777,-0 12.275,-5.494 12.275,-12.275c-0,-5.928 -4.204,-10.875 -9.792,-12.023Z" style="fill:#e27b52;fill-rule:nonzero;"/><path d="M30.085,54.738c-1.588,-2.819 -2.758,-5.282 -3.477,-7.306c-1.102,-3.074 -1.606,-6.113 -1.5,-9.033c-0.049,-2.288 0.19,-4.51 0.717,-6.659c-1.617,-0.403 -3.31,-0.622 -5.051,-0.622c-11.473,-0 -20.774,9.301 -20.774,20.774c0,11.473 9.301,20.773 20.774,20.773c6.217,0 11.792,-2.734 15.6,-7.062c-0.514,-0.914 -1.069,-1.882 -1.668,-2.909c-4.387,-7.525 -4.569,-7.857 -4.621,-7.956Z" style="fill:#5a8d54;fill-rule:nonzero;"/><path d="M32.551,20.851c0.913,-0.974 1.885,-1.897 2.949,-2.724c0.613,-0.454 1.159,-0.843 1.662,-1.186c0.21,-0.151 0.437,-0.304 0.69,-0.455c3.502,-2.115 7.345,-3.34 11.416,-3.636c0.405,-0.029 0.795,-0.046 1.176,-0.052c0.186,-0.014 0.365,-0.021 0.543,-0.021c0.192,0 0.383,0.008 0.568,0.023c0.104,0.002 0.207,0.011 0.309,0.015c0.016,-0.243 0.039,-0.485 0.039,-0.73c-0,-6.445 -5.225,-11.671 -11.668,-11.671c-6.447,0 -11.671,5.226 -11.671,11.671c-0,3.497 1.548,6.627 3.987,8.766Z" style="fill:#f9c852;fill-rule:nonzero;"/><path d="M62.309,15.372c1.972,0.952 3.724,2.098 5.304,3.394c3.679,-1.268 6.323,-4.75 6.323,-8.858c-0,-5.181 -4.197,-9.379 -9.377,-9.379c-5.179,-0 -9.38,4.198 -9.38,9.379c0,1.175 0.228,2.295 0.622,3.332c2.225,0.418 4.401,1.128 6.508,2.132Z" style="fill:#e27b52;fill-rule:nonzero;"/></g></svg>