<?xml version="1.0" encoding="utf-8"?>
<!-- Generator: Adobe Illustrator 26.0.2, SVG Export Plug-In . SVG Version: 6.00 Build 0)  -->
<!DOCTYPE svg PUBLIC "-//W3C//DTD SVG 1.1//EN" "http://www.w3.org/Graphics/SVG/1.1/DTD/svg11.dtd" [
	<!ENTITY ns_extend "http://ns.adobe.com/Extensibility/1.0/">
	<!ENTITY ns_ai "http://ns.adobe.com/AdobeIllustrator/10.0/">
	<!ENTITY ns_graphs "http://ns.adobe.com/Graphs/1.0/">
	<!ENTITY ns_vars "http://ns.adobe.com/Variables/1.0/">
	<!ENTITY ns_imrep "http://ns.adobe.com/ImageReplacement/1.0/">
	<!ENTITY ns_sfw "http://ns.adobe.com/SaveForWeb/1.0/">
	<!ENTITY ns_custom "http://ns.adobe.com/GenericCustomNamespace/1.0/">
	<!ENTITY ns_adobe_xpath "http://ns.adobe.com/XPath/1.0/">
]>
<svg version="1.1" xmlns:x="&ns_extend;" xmlns:i="&ns_ai;" xmlns:graph="&ns_graphs;"
	 xmlns="http://www.w3.org/2000/svg" xmlns:xlink="http://www.w3.org/1999/xlink" x="0px" y="0px" viewBox="0 0 425.197 113.386"
	 style="enable-background:new 0 0 425.197 113.386;" xml:space="preserve">
<style type="text/css">
	.st0{fill:#9B9610;}
	.st1{fill:#F3AC00;}
	.st2{fill:#6E2972;}
	.st3{fill:#008FA4;}
</style>
<metadata>
	<sfw  xmlns="&ns_sfw;">
		<slices></slices>
		<sliceSourceBounds  bottomLeftOrigin="true" height="87" width="385.363" x="19.917" y="-101.327"></sliceSourceBounds>
		<optimizationSettings>
			<targetSettings  fileFormat="JPEGFormat" targetSettingsID="0">
				
					<JPEGFormat  blurAmount="0" embedICCProfile="false" matteColor="#FFFFFF" noMatteColor="false" optimized="true" progressive="true" quality="100">
					</JPEGFormat>
			</targetSettings>
		</optimizationSettings>
	</sfw>
</metadata>
<g id="wort">
	<path d="M37.169,21.395c-0.272,0.859-0.663,1.884-1.171,3.072c-0.509,1.189-4.079,8.952-10.71,23.289h-4.039l-1.332-31.41h3.867
		l0.623,19.143l0.043,1.848c0,1.49-0.072,3.352-0.215,5.586h0.129c1.432-3.81,2.535-6.51,3.309-8.1l8.615-18.477h3.996l0.881,18.391
		c0.143,2.292,0.215,4.419,0.215,6.381l-0.021,1.805h0.129c1.317-3.724,2.256-6.252,2.814-7.584l8.229-18.992h4.168l-14.244,31.41
		h-4.018L37.47,27.518c-0.115-1.948-0.172-3.989-0.172-6.123H37.169z M61.36,48.186c-1.962,0-3.517-0.702-4.662-2.105
		c-1.146-1.403-1.719-3.38-1.719-5.93c0-2.936,0.505-5.675,1.515-8.218c1.01-2.542,2.402-4.544,4.179-6.005
		c1.776-1.461,3.738-2.191,5.887-2.191c1.332,0,2.503,0.351,3.513,1.053c1.01,0.702,1.815,1.712,2.417,3.029h0.236l1.396-3.652
		h2.943l-5.006,23.59h-3.072l0.559-4.361h-0.172C66.896,46.589,64.225,48.186,61.36,48.186z M62.649,44.985
		c1.346,0,2.696-0.645,4.05-1.934s2.438-2.968,3.255-5.038c0.816-2.069,1.225-4.179,1.225-6.327c0-1.403-0.387-2.539-1.16-3.405
		c-0.773-0.866-1.798-1.3-3.072-1.3c-1.447,0-2.79,0.605-4.028,1.815c-1.239,1.21-2.209,2.84-2.911,4.888
		c-0.702,2.048-1.053,4.232-1.053,6.553c0,1.59,0.322,2.779,0.967,3.566C60.565,44.591,61.475,44.985,62.649,44.985z M82.931,47.756
		h-3.889l7.133-33.43h3.867L82.931,47.756z M97.69,48.186c-1.977,0-3.534-0.694-4.673-2.084c-1.139-1.389-1.708-3.373-1.708-5.951
		c0-2.993,0.501-5.765,1.504-8.314c1.002-2.549,2.388-4.529,4.157-5.94c1.769-1.411,3.742-2.116,5.919-2.116
		c2.721,0,4.698,1.347,5.93,4.039h0.236c0.315-2.449,0.637-4.383,0.967-5.801l1.611-7.691h3.846l-7.09,33.43h-3.18l0.494-4.361
		h-0.172c-1.375,1.705-2.686,2.929-3.932,3.674S99.051,48.186,97.69,48.186z M99.022,44.985c1.332,0,2.686-0.669,4.061-2.009
		c1.375-1.339,2.463-3.022,3.266-5.049c0.802-2.026,1.203-4.085,1.203-6.177c0-1.547-0.373-2.729-1.117-3.545
		c-0.745-0.816-1.841-1.225-3.287-1.225c-1.418,0-2.729,0.598-3.932,1.794c-1.203,1.196-2.159,2.825-2.868,4.888
		s-1.063,4.254-1.063,6.574C95.284,43.402,96.53,44.985,99.022,44.985z M125.341,48.186c-2.664,0-4.755-0.784-6.273-2.353
		c-1.519-1.568-2.277-3.742-2.277-6.521c0-2.692,0.526-5.264,1.579-7.713s2.474-4.372,4.265-5.769
		c1.79-1.396,3.774-2.095,5.951-2.095c2.234,0,3.917,0.483,5.049,1.45c1.131,0.967,1.697,2.317,1.697,4.05
		c0,2.607-1.203,4.645-3.609,6.112c-2.406,1.468-5.801,2.202-10.184,2.202h-0.73l-0.086,1.633c0,1.805,0.433,3.223,1.3,4.254
		c0.866,1.031,2.202,1.547,4.007,1.547c1.103,0,2.159-0.157,3.169-0.473c1.01-0.315,2.095-0.759,3.255-1.332v3.309
		c-1.418,0.659-2.657,1.106-3.717,1.343C127.675,48.068,126.544,48.186,125.341,48.186z M128.37,26.938
		c-1.476,0-2.865,0.691-4.168,2.073c-1.304,1.382-2.249,3.184-2.836,5.403h0.322c3.122,0,5.543-0.415,7.262-1.246
		c1.719-0.831,2.578-2.041,2.578-3.631c0-0.759-0.258-1.382-0.773-1.869C130.239,27.182,129.444,26.938,128.37,26.938z
		 M153.356,23.737c1.618,0,2.868,0.462,3.749,1.386s1.407,2.209,1.579,3.856h0.172c2.406-3.495,5.106-5.242,8.1-5.242
		c1.833,0,3.244,0.498,4.232,1.493c0.988,0.996,1.482,2.432,1.482,4.308c0,1.261-0.158,2.55-0.473,3.867l-3.051,14.352h-3.91
		l3.18-14.781c0.258-1.346,0.387-2.37,0.387-3.072c0-0.888-0.24-1.597-0.72-2.127c-0.48-0.53-1.235-0.795-2.267-0.795
		c-1.117,0-2.22,0.412-3.309,1.235c-1.089,0.824-2.059,1.998-2.911,3.523c-0.853,1.525-1.493,3.312-1.923,5.36l-2.256,10.656h-3.867
		l3.137-14.781c0.258-1.346,0.387-2.313,0.387-2.9c0-2.062-0.953-3.094-2.857-3.094c-1.175,0-2.313,0.423-3.416,1.268
		c-1.103,0.845-2.081,2.066-2.933,3.663c-0.853,1.597-1.508,3.491-1.966,5.683l-2.148,10.162h-3.889l5.027-23.59h3.158l-0.473,4.361
		h0.215c0.974-1.289,1.815-2.227,2.524-2.814c0.709-0.587,1.482-1.063,2.32-1.429S152.382,23.737,153.356,23.737z M183.628,48.186
		c-1.962,0-3.517-0.702-4.662-2.105c-1.146-1.403-1.719-3.38-1.719-5.93c0-2.936,0.505-5.675,1.515-8.218
		c1.01-2.542,2.402-4.544,4.179-6.005c1.776-1.461,3.738-2.191,5.887-2.191c1.332,0,2.503,0.351,3.513,1.053
		c1.01,0.702,1.815,1.712,2.417,3.029h0.236l1.396-3.652h2.943l-5.006,23.59h-3.072l0.559-4.361h-0.172
		C189.164,46.589,186.492,48.186,183.628,48.186z M184.917,44.985c1.346,0,2.696-0.645,4.05-1.934s2.438-2.968,3.255-5.038
		c0.816-2.069,1.225-4.179,1.225-6.327c0-1.403-0.387-2.539-1.16-3.405c-0.773-0.866-1.798-1.3-3.072-1.3
		c-1.447,0-2.79,0.605-4.028,1.815c-1.239,1.21-2.209,2.84-2.911,4.888c-0.702,2.048-1.053,4.232-1.053,6.553
		c0,1.59,0.322,2.779,0.967,3.566C182.833,44.591,183.742,44.985,184.917,44.985z M216.456,23.737c1.002,0,1.854,0.101,2.557,0.301
		l-0.838,3.48c-0.803-0.172-1.555-0.258-2.256-0.258c-1.289,0-2.5,0.419-3.631,1.257c-1.132,0.838-2.116,2.009-2.954,3.513
		s-1.443,3.151-1.815,4.941l-2.277,10.785h-3.889l5.027-23.59h3.158l-0.473,4.361h0.215c1.045-1.375,1.904-2.356,2.578-2.943
		c0.673-0.587,1.382-1.042,2.127-1.364C214.73,23.898,215.554,23.737,216.456,23.737z M251.497,47.756H247.2l-6.123-15.232
		l-3.652,2.686l-2.643,12.547h-3.91l6.639-31.41h3.91L238.177,31.6l2.729-2.9l12.053-12.354h4.748l-13.643,13.814L251.497,47.756z
		 M276.505,32.975c0,2.722-0.516,5.274-1.547,7.659s-2.436,4.226-4.211,5.521c-1.776,1.296-3.789,1.944-6.037,1.944
		c-2.75,0-4.906-0.816-6.467-2.449c-1.562-1.633-2.342-3.838-2.342-6.617c0-2.75,0.529-5.328,1.59-7.734
		c1.06-2.406,2.474-4.247,4.243-5.521c1.769-1.274,3.756-1.912,5.962-1.912c2.735,0,4.888,0.813,6.456,2.438
		C275.721,27.93,276.505,30.154,276.505,32.975z M272.53,32.524c0-1.647-0.43-2.968-1.289-3.964
		c-0.859-0.995-2.027-1.493-3.502-1.493c-1.519,0-2.887,0.53-4.104,1.59c-1.218,1.06-2.156,2.524-2.814,4.394
		c-0.659,1.869-0.988,3.914-0.988,6.134c0,1.833,0.44,3.244,1.321,4.232s2.138,1.482,3.771,1.482c1.432,0,2.731-0.512,3.899-1.536
		c1.167-1.024,2.076-2.474,2.729-4.351C272.204,37.136,272.53,34.973,272.53,32.524z M289.439,48.186
		c-2.779,0-4.935-0.766-6.467-2.299c-1.533-1.532-2.299-3.695-2.299-6.488c0-2.907,0.526-5.564,1.579-7.971s2.51-4.29,4.372-5.65
		c1.861-1.36,3.988-2.041,6.381-2.041c2.105,0,4.053,0.38,5.844,1.139l-1.096,3.223c-1.647-0.745-3.216-1.117-4.705-1.117
		c-1.576,0-3.012,0.548-4.308,1.644c-1.297,1.096-2.303,2.589-3.019,4.479c-0.717,1.891-1.074,3.975-1.074,6.252
		c0,1.791,0.454,3.176,1.364,4.157c0.909,0.981,2.181,1.472,3.813,1.472c1.045,0,2.026-0.143,2.943-0.43
		c0.916-0.286,1.826-0.63,2.729-1.031v3.266C293.663,47.721,291.644,48.186,289.439,48.186z M317.948,47.756h-3.867l3.115-14.781
		c0.271-1.274,0.408-2.241,0.408-2.9c0-2.062-1.031-3.094-3.094-3.094c-1.246,0-2.457,0.426-3.631,1.278
		c-1.175,0.853-2.206,2.07-3.094,3.652c-0.889,1.583-1.562,3.477-2.02,5.683l-2.148,10.162h-3.889l7.09-33.43h3.867l-1.891,8.658
		c-0.172,0.888-0.387,1.809-0.645,2.761c-0.258,0.953-0.509,1.895-0.752,2.825h0.215c1.274-1.676,2.56-2.893,3.856-3.652
		c1.296-0.759,2.667-1.139,4.114-1.139c1.891,0,3.352,0.512,4.383,1.536c1.031,1.024,1.547,2.518,1.547,4.479
		c0,0.802-0.158,2.005-0.473,3.609L317.948,47.756z M190.439,81.647c0,2.994-1.003,5.332-3.008,7.015
		c-2.005,1.684-4.841,2.524-8.508,2.524c-2.922,0-5.357-0.465-7.305-1.396v-3.867c2.392,1.232,4.841,1.848,7.348,1.848
		c2.234,0,4.018-0.516,5.35-1.547s1.998-2.456,1.998-4.275c0-1.088-0.354-2.048-1.063-2.879c-0.709-0.83-2.088-1.833-4.136-3.008
		c-2.177-1.274-3.674-2.527-4.49-3.76c-0.816-1.231-1.225-2.664-1.225-4.297c0-1.79,0.437-3.376,1.311-4.759
		c0.874-1.382,2.109-2.452,3.706-3.212c1.597-0.759,3.369-1.139,5.317-1.139c2.85,0,5.479,0.616,7.885,1.848l-1.504,3.352
		c-0.917-0.516-1.948-0.931-3.094-1.246c-1.146-0.314-2.242-0.473-3.287-0.473c-1.848,0-3.334,0.483-4.458,1.45
		c-1.125,0.967-1.687,2.274-1.687,3.921c0,1.117,0.279,2.041,0.838,2.771s1.769,1.641,3.631,2.729
		c2.048,1.246,3.438,2.231,4.168,2.954c0.73,0.724,1.282,1.522,1.654,2.396C190.252,79.47,190.439,80.487,190.439,81.647z
		 M201.718,88.028c0.888,0,1.926-0.193,3.115-0.58v2.965c-0.401,0.201-0.978,0.379-1.729,0.537
		c-0.752,0.157-1.407,0.236-1.966,0.236c-1.833,0-3.23-0.43-4.189-1.289c-0.96-0.859-1.439-2.141-1.439-3.846
		c0-0.916,0.129-1.962,0.387-3.137l2.686-12.805h-3.652l0.344-1.74l3.975-1.676l2.729-4.898h2.277l-1.182,5.371h5.93l-0.602,2.943
		h-5.908l-2.729,12.869c-0.258,1.16-0.387,2.034-0.387,2.621c0,0.688,0.179,1.265,0.537,1.729
		C200.271,87.796,200.872,88.028,201.718,88.028z M212.718,90.756h-3.889l5.027-23.59h3.867L212.718,90.756z M214.866,61.194
		c0-0.816,0.239-1.489,0.72-2.02c0.479-0.529,1.106-0.795,1.88-0.795c1.346,0,2.02,0.659,2.02,1.977
		c0,0.859-0.251,1.558-0.752,2.095c-0.502,0.537-1.089,0.806-1.762,0.806c-0.616,0-1.121-0.179-1.515-0.537
		C215.063,62.362,214.866,61.853,214.866,61.194z M216.843,101.327c-1.002,0-1.94-0.15-2.814-0.451V97.61
		c0.889,0.329,1.705,0.494,2.449,0.494c1.003,0,1.812-0.401,2.428-1.203c0.615-0.803,1.103-2.07,1.461-3.803L225.2,70.11h-4.104
		l0.322-1.611l4.383-1.461l0.494-2.105c0.658-2.893,1.586-4.923,2.782-6.091c1.195-1.167,2.939-1.751,5.231-1.751
		c1.389,0,2.764,0.279,4.125,0.838l-1.01,2.943c-1.061-0.4-2.041-0.602-2.943-0.602c-1.261,0-2.206,0.358-2.836,1.074
		c-0.631,0.717-1.125,1.912-1.482,3.588l-0.516,2.234h5.049l-0.559,2.943h-5.07l-4.92,23.418c-0.573,2.707-1.458,4.684-2.653,5.93
		C220.298,100.704,218.748,101.327,216.843,101.327z M241.657,88.028c0.888,0,1.926-0.193,3.115-0.58v2.965
		c-0.401,0.201-0.978,0.379-1.729,0.537c-0.752,0.157-1.407,0.236-1.966,0.236c-1.834,0-3.23-0.43-4.189-1.289
		c-0.96-0.859-1.439-2.141-1.439-3.846c0-0.916,0.129-1.962,0.387-3.137l2.686-12.805h-3.652l0.344-1.74l3.975-1.676l2.729-4.898
		h2.277l-1.182,5.371h5.93l-0.602,2.943h-5.908l-2.729,12.869c-0.258,1.16-0.387,2.034-0.387,2.621c0,0.688,0.179,1.265,0.537,1.729
		C240.21,87.796,240.812,88.028,241.657,88.028z M253.538,67.167h3.91l-3.18,14.824c-0.258,1.289-0.387,2.277-0.387,2.965
		c0,2.02,1.023,3.029,3.072,3.029c1.246,0,2.452-0.422,3.62-1.268c1.167-0.845,2.209-2.073,3.126-3.685
		c0.916-1.611,1.604-3.513,2.062-5.704l2.148-10.162h3.824l-5.006,23.59h-3.18l0.494-4.361h-0.215
		c-1.289,1.69-2.586,2.911-3.889,3.663c-1.304,0.752-2.664,1.128-4.082,1.128c-1.834,0-3.273-0.512-4.318-1.536
		c-1.046-1.023-1.568-2.46-1.568-4.308c0-0.916,0.157-2.177,0.473-3.781L253.538,67.167z M292.468,90.756h-3.867l3.115-14.781
		c0.301-1.418,0.451-2.428,0.451-3.029c0-0.902-0.251-1.622-0.752-2.159c-0.502-0.537-1.297-0.806-2.385-0.806
		c-1.232,0-2.432,0.423-3.599,1.268c-1.168,0.846-2.202,2.066-3.104,3.663c-0.902,1.598-1.583,3.491-2.041,5.683l-2.148,10.162
		h-3.889l5.027-23.59h3.158l-0.473,4.361h0.215c0.959-1.231,1.822-2.155,2.589-2.771c0.766-0.615,1.597-1.106,2.492-1.472
		c0.895-0.365,1.844-0.548,2.847-0.548c1.848,0,3.298,0.505,4.351,1.515s1.579,2.438,1.579,4.286c0,1.117-0.158,2.406-0.473,3.867
		L292.468,90.756z M306.69,101.327c-2.822,0-5.186-0.502-7.09-1.504v-3.566c0.902,0.544,2.02,0.988,3.352,1.332
		s2.535,0.516,3.609,0.516c1.904,0,3.423-0.462,4.555-1.386c1.131-0.924,1.926-2.367,2.385-4.329l1.096-4.512l0.408-1.482h-0.172
		c-1.304,1.676-2.597,2.894-3.878,3.652c-1.282,0.759-2.589,1.139-3.921,1.139c-1.991,0-3.56-0.701-4.705-2.105
		c-1.146-1.403-1.719-3.38-1.719-5.93c0-3.079,0.522-5.897,1.568-8.454c1.045-2.557,2.438-4.522,4.179-5.897
		s3.685-2.062,5.833-2.062c2.735,0,4.727,1.361,5.973,4.082h0.193l1.439-3.652h2.943l-5.35,24.943
		c-0.674,3.15-1.877,5.475-3.609,6.972C312.047,100.578,309.684,101.327,306.69,101.327z M308.323,87.985
		c1.289,0,2.613-0.651,3.975-1.955c1.36-1.303,2.452-2.989,3.276-5.06c0.823-2.069,1.235-4.143,1.235-6.22
		c0-3.18-1.439-4.77-4.318-4.77c-1.447,0-2.779,0.605-3.996,1.815c-1.218,1.211-2.174,2.854-2.868,4.931
		c-0.695,2.077-1.042,4.247-1.042,6.51C304.585,86.403,305.831,87.985,308.323,87.985z"/>
</g>
<g id="Bild">
	<path class="st0" d="M370.128,39.16c0,8.61-6.977,15.598-15.59,15.598c-8.614,0-15.599-6.988-15.599-15.598
		c0-8.61,6.984-15.591,15.599-15.591C363.152,23.569,370.128,30.55,370.128,39.16z"/>
	<path class="st1" d="M405.279,39.16c0,8.61-6.977,15.598-15.59,15.598c-8.614,0-15.599-6.988-15.599-15.598
		c0-8.61,6.984-15.591,15.599-15.591C398.302,23.569,405.279,30.55,405.279,39.16z"/>
	<path class="st2" d="M370.129,74.219c0,8.61-6.977,15.598-15.59,15.598c-8.614,0-15.599-6.987-15.599-15.598
		c0-8.61,6.984-15.591,15.599-15.591C363.153,58.628,370.129,65.608,370.129,74.219z"/>
	<path class="st3" d="M405.28,74.219c0,8.61-6.977,15.598-15.59,15.598c-8.614,0-15.599-6.987-15.599-15.598
		c0-8.61,6.984-15.591,15.599-15.591C398.303,58.628,405.28,65.608,405.28,74.219z"/>
</g>
</svg>
